<?xml version="1.0" encoding="iso-8859-1"?>
<!-- Generator: Adobe Illustrator 19.0.0, SVG Export Plug-In . SVG Version: 6.00 Build 0)  -->
<svg version="1.1" id="Capa_1" xmlns="http://www.w3.org/2000/svg" xmlns:xlink="http://www.w3.org/1999/xlink" x="0px" y="0px"
	 viewBox="0 0 512 512" style="enable-background:new 0 0 512 512;" xml:space="preserve">
<g>
	<g>
		<path d="M356.197,59.667H271V0h-30v59.667h-85.198L92.79,177.577V512H419.21V177.577L356.197,59.667z M256,143
			c6.946,0,12.596,5.65,12.596,12.596c0,6.945-5.65,12.596-12.596,12.596c-6.945,0-12.596-5.65-12.596-12.596
			C243.404,148.651,249.055,143,256,143z M122.791,482V185.09l50.995-95.423H241v26.068c-16.107,6.081-27.596,21.652-27.596,39.861
			c0,23.487,19.108,42.596,42.596,42.596c23.487,0,42.596-19.108,42.596-42.596c0-18.209-11.489-33.78-27.596-39.861V89.667h67.214
			l50.995,95.423V482H122.791z"/>
	</g>
</g>
<g>
	<g>
		<path d="M243.738,289.718c0-4.116,3.773-7.546,15.605-7.546c10.461,0,21.607,2.915,33.439,8.917l12.175-29.324
			c-9.775-5.488-22.121-8.746-34.811-9.946V233.47h-24.179v18.692c-28.123,3.944-42.185,20.235-42.185,39.613
			c0,44.757,66.364,32.582,66.364,47.673c0.001,4.117-4.114,6.517-15.604,6.517c-13.204,0-28.295-4.287-39.613-10.975
			l-13.033,29.495c10.289,6.345,26.923,10.975,44.071,12.004v18.177h24.179v-19.035c26.58-4.63,39.956-20.75,39.956-39.27
			C310.102,292.118,243.738,304.122,243.738,289.718z"/>
	</g>
</g>
<g>
	<g>
		<rect x="186.67" y="414.67" width="138.67" height="30"/>
	</g>
</g>
<g>
</g>
<g>
</g>
<g>
</g>
<g>
</g>
<g>
</g>
<g>
</g>
<g>
</g>
<g>
</g>
<g>
</g>
<g>
</g>
<g>
</g>
<g>
</g>
<g>
</g>
<g>
</g>
<g>
</g>
</svg>
